<?xml version="1.0" standalone="no"?>
<!DOCTYPE svg PUBLIC "-//W3C//DTD SVG 20010904//EN"
 "http://www.w3.org/TR/2001/REC-SVG-20010904/DTD/svg10.dtd">
<svg version="1.0" xmlns="http://www.w3.org/2000/svg"
 width="918.000000pt" height="918.000000pt" viewBox="0 0 918.000000 918.000000"
 preserveAspectRatio="xMidYMid meet">
<metadata>
Created by potrace 1.11, written by Peter Selinger 2001-2013
</metadata>
<g transform="translate(0.000000,918.000000) scale(0.100000,-0.100000)"
fill="#000000" stroke="none">
<path d="M4521 7662 c-88 -44 -113 -170 -52 -253 27 -36 28 -118 2 -174 -66
-145 -246 -181 -359 -72 -62 59 -80 125 -62 221 10 49 9 69 -2 101 -36 108
-191 116 -239 12 -25 -56 -24 -85 6 -141 20 -37 36 -111 75 -346 27 -164 50
-313 50 -329 0 -47 -22 -37 -54 24 -28 54 -28 56 -11 75 10 11 16 22 14 25 -5
5 -265 -117 -468 -219 -62 -32 -119 -55 -125 -53 -10 4 -56 110 -56 129 0 3
17 13 38 21 75 30 351 167 437 216 48 28 89 51 91 51 2 0 19 -28 40 -62 47
-81 48 -82 41 -25 -3 32 -13 57 -28 74 -23 24 -28 25 -91 19 -38 -3 -68 -2
-68 3 0 4 -17 38 -37 75 -32 57 -41 66 -65 66 -15 0 -102 -36 -193 -80 -186
-90 -196 -100 -178 -173 6 -23 17 -56 24 -73 11 -28 10 -34 -9 -55 -39 -42
-22 -120 43 -198 19 -22 39 -33 67 -37 35 -6 43 -12 58 -48 10 -23 21 -57 25
-77 6 -33 3 -40 -39 -83 l-46 -47 -85 2 c-71 2 -89 -1 -107 -17 -12 -10 -18
-13 -14 -6 9 15 -6 16 -21 1 -7 -7 -13 -7 -17 -1 -9 15 -114 -16 -187 -54 -32
-16 -49 -12 -49 12 0 22 -57 101 -86 120 -18 12 -36 15 -65 10 -39 -6 -44 -4
-90 39 -75 70 -76 69 -262 -93 -132 -116 -139 -132 -81 -192 17 -17 37 -42 44
-55 12 -23 11 -28 -15 -55 -40 -42 -37 -82 11 -131 36 -37 37 -39 23 -71 -14
-34 -85 -118 -100 -118 -5 0 -9 11 -9 24 0 17 -14 36 -49 63 -26 21 -57 54
-69 73 -22 40 -78 61 -125 49 -38 -10 -34 9 5 25 24 10 38 11 55 3 17 -7 27
-7 35 1 17 17 2 40 -36 59 -32 15 -37 15 -60 -1 -37 -23 -100 -11 -140 27 -37
35 -72 52 -106 52 -27 0 -37 6 -81 47 -16 14 -29 23 -29 19 0 -4 9 -16 20 -26
11 -10 20 -31 20 -46 0 -15 5 -31 10 -34 6 -3 10 -16 10 -28 0 -12 9 -37 20
-55 21 -34 27 -106 10 -117 -6 -4 -10 10 -10 34 0 23 -10 59 -25 87 -14 26
-25 52 -25 59 0 28 -33 75 -66 94 -38 23 -37 46 1 37 22 -6 23 -4 13 27 -7 23
-20 37 -39 44 -26 10 -28 14 -22 45 3 18 17 54 29 80 25 49 30 83 16 92 -5 3
-15 -7 -23 -22 -8 -15 -20 -33 -27 -41 -7 -7 -31 -50 -53 -95 -22 -44 -48 -90
-58 -101 -10 -11 -36 -47 -59 -80 -22 -33 -54 -76 -71 -95 l-31 -35 6 39 c7
38 6 39 -17 32 -54 -17 -75 -17 -88 -2 -8 9 -21 16 -31 16 -26 0 -53 36 -48
64 l5 25 -28 -20 c-16 -11 -31 -24 -34 -29 -9 -14 -25 -12 -25 2 0 6 27 58 59
114 68 115 119 223 145 304 26 79 30 84 65 94 36 10 41 23 9 22 -20 -1 -23 3
-20 29 2 17 6 72 9 123 l4 93 -22 -12 c-13 -6 -31 -21 -41 -33 -12 -15 -20
-18 -25 -9 -23 33 -149 -73 -253 -212 -154 -207 -265 -405 -319 -573 -43 -131
-54 -201 -49 -287 7 -109 10 -111 238 -175 l190 -54 147 -126 148 -127 5 83
c8 130 -28 117 471 174 233 27 450 52 482 56 l58 6 68 139 c64 132 68 138 84
121 21 -23 21 -39 2 -75 -14 -27 -65 -163 -65 -173 0 -2 7 -4 15 -4 29 0 65
-47 65 -84 l0 -36 63 6 c34 2 90 7 125 10 l62 6 1 71 c0 40 3 102 8 139 4 38
3 72 -2 77 -16 16 45 115 112 182 70 70 143 116 238 151 55 21 78 22 403 26
342 4 470 -1 470 -18 0 -5 -7 -7 -16 -3 -22 8 -34 -15 -24 -43 8 -21 5 -24
-28 -34 -21 -5 -146 -10 -288 -10 -272 0 -335 -7 -434 -47 -103 -42 -259 -152
-217 -153 35 0 108 -61 127 -104 17 -41 17 -132 0 -121 -5 3 -6 -3 -4 -13 3
-10 -8 -30 -28 -51 l-33 -34 65 6 c36 3 158 11 272 18 195 12 208 12 227 -5
11 -10 23 -30 26 -45 l6 -26 167 12 c92 6 183 12 203 12 28 1 38 6 42 21 3 10
-1 24 -9 31 -8 6 -14 22 -14 35 0 12 -4 25 -9 28 -5 3 -9 28 -9 56 0 27 4 50
9 50 5 0 9 9 9 19 0 23 37 111 46 111 4 0 29 -14 55 -30 46 -30 47 -32 54 -93
7 -62 25 -104 53 -121 11 -6 12 -10 2 -16 -8 -5 -1 -10 20 -15 19 -4 64 -24
102 -43 l69 -36 182 -1 c200 0 257 12 296 61 29 36 104 51 168 32 45 -13 81
-13 334 3 361 23 433 24 449 4 7 -8 27 -15 44 -15 17 0 93 -5 168 -12 107 -9
142 -9 163 0 41 19 145 28 145 13 0 -8 7 -10 19 -6 14 4 23 0 31 -15 6 -11 15
-18 21 -14 5 3 15 2 22 -4 7 -5 20 -12 30 -15 15 -6 16 -2 11 21 -27 107 -102
231 -192 315 -51 47 -66 55 -76 38 -3 -5 -16 -11 -28 -14 -22 -6 -22 -5 -4 8
10 7 15 19 11 25 -5 8 -11 6 -19 -6 -7 -9 -18 -14 -24 -10 -7 4 -12 3 -12 -2
0 -6 -17 -8 -37 -6 -21 2 -47 0 -58 -3 -30 -11 42 -21 78 -12 15 4 27 4 27 -2
0 -5 -3 -9 -7 -10 -5 0 -17 -2 -28 -4 -25 -5 -126 17 -102 23 9 2 17 8 17 13
0 12 -7 11 -30 -1 -16 -9 -18 -8 -13 6 4 11 1 15 -13 12 -12 -2 -18 2 -16 10
1 8 -2 11 -7 8 -5 -4 -20 15 -33 41 -13 27 -28 54 -35 61 -9 9 -79 12 -286 12
-262 0 -394 11 -381 31 3 5 10 7 15 4 5 -4 9 8 9 24 0 22 -5 31 -17 32 -12 1
-10 4 7 9 14 4 172 8 352 9 311 1 378 6 378 31 0 9 63 36 112 49 70 18 152
-23 200 -98 16 -26 49 -58 77 -76 84 -52 177 -148 213 -220 10 -19 18 -76 23
-151 6 -117 6 -121 -14 -127 -13 -3 -21 -13 -21 -25 0 -19 29 -29 90 -31 8 -1
65 -7 125 -15 61 -8 111 -13 111 -12 1 0 -2 24 -7 51 -17 108 -55 224 -98 297
l-22 36 30 7 c17 4 33 11 36 16 13 19 37 8 47 -23 20 -57 161 -330 172 -333 6
-2 157 -8 336 -15 179 -6 408 -15 510 -21 208 -11 226 -18 232 -86 l3 -35 93
79 93 80 189 53 c228 64 231 66 238 175 14 215 -120 527 -368 860 -104 139
-230 245 -253 212 -5 -9 -13 -6 -25 9 -10 12 -28 27 -41 33 l-22 12 4 -93 c3
-51 7 -106 9 -123 3 -26 0 -30 -19 -29 -33 1 -28 -12 8 -22 35 -10 39 -15 65
-94 26 -81 77 -189 145 -304 32 -56 59 -108 59 -114 0 -14 -16 -16 -25 -2 -3
5 -18 18 -34 29 l-28 20 5 -25 c5 -28 -22 -64 -48 -64 -10 0 -23 -7 -31 -16
-13 -15 -34 -15 -88 2 -23 7 -24 6 -17 -32 l6 -39 -31 35 c-17 19 -49 62 -71
95 -23 33 -49 69 -59 80 -10 11 -36 57 -58 101 -22 45 -46 88 -53 95 -7 8 -19
26 -27 41 -8 15 -18 25 -23 22 -14 -9 -9 -43 16 -92 12 -26 26 -62 29 -80 6
-31 4 -35 -22 -45 -19 -7 -32 -21 -39 -44 -10 -31 -9 -33 13 -27 38 9 39 -14
1 -37 -33 -19 -66 -66 -66 -94 0 -7 -11 -33 -25 -59 -15 -28 -25 -64 -25 -87
0 -24 -4 -38 -10 -34 -17 11 -11 83 10 117 11 18 20 43 20 55 0 12 5 25 10 28
6 3 10 19 10 34 0 15 9 36 20 46 11 10 20 22 20 26 0 4 -13 -5 -29 -19 -44
-41 -54 -47 -81 -47 -34 0 -69 -17 -106 -52 -40 -38 -103 -50 -140 -27 -23 16
-28 16 -60 1 -38 -19 -53 -42 -36 -59 8 -8 18 -8 35 -1 17 8 31 7 55 -3 39
-16 43 -35 5 -25 -47 12 -103 -9 -125 -49 -12 -19 -43 -52 -69 -73 -35 -27
-49 -46 -49 -63 0 -33 -10 -30 -52 14 -56 58 -98 151 -98 217 0 74 18 144 41
158 29 18 23 26 -16 23 -28 -3 -35 0 -35 15 0 10 5 21 10 24 27 16 3 49 -102
142 -193 169 -192 169 -267 98 -46 -43 -50 -45 -93 -39 -41 6 -47 3 -79 -27
-19 -19 -43 -47 -55 -64 l-21 -29 -52 17 c-28 9 -90 22 -136 29 -81 11 -85 13
-85 37 0 14 -11 37 -25 51 l-26 27 21 44 c28 64 27 122 -5 147 -26 21 -282
137 -334 152 -39 11 -51 0 -96 -88 -30 -58 -41 -72 -54 -66 -9 4 -33 9 -54 12
-32 3 -44 -1 -68 -24 -28 -27 -44 -74 -37 -111 2 -12 15 3 41 50 21 37 40 67
43 67 3 0 72 -33 152 -72 132 -66 321 -150 395 -177 15 -6 27 -17 27 -26 0
-13 -22 -15 -152 -15 l-153 0 -168 75 c-92 41 -170 75 -173 75 -11 0 -2 -24
12 -35 15 -10 14 -16 -10 -63 l-26 -52 -65 0 -65 0 0 48 c0 26 5 53 12 60 9 9
9 12 0 12 -21 0 -13 27 13 44 49 32 57 149 15 225 l-21 36 25 165 c65 431 79
506 97 542 24 48 24 89 -1 138 -24 46 -64 70 -117 70 -42 0 -96 -28 -112 -58
-19 -35 -24 -99 -10 -138 44 -133 -63 -274 -212 -277 -59 -1 -143 45 -181 99
-33 46 -52 133 -38 167 5 12 19 34 31 48 42 52 44 145 4 205 -40 61 -134 82
-204 46z m154 -45 c61 -61 53 -154 -17 -197 -118 -72 -242 75 -156 185 25 32
51 44 102 44 30 1 45 -6 71 -32z m-677 -113 c46 -53 18 -142 -51 -159 -52 -14
-117 39 -117 95 0 86 111 129 168 64z m1281 25 c76 -27 80 -135 6 -175 -39
-21 -76 -14 -111 21 -43 43 -26 133 30 155 29 12 38 12 75 -1z m-633 -241 c42
-149 171 -242 307 -222 87 13 179 91 213 181 16 40 19 43 55 43 21 0 40 -4 44
-10 5 -8 -5 -81 -66 -465 -6 -38 -13 -73 -16 -78 -2 -4 -23 6 -46 22 -62 42
-130 70 -242 99 -92 25 -116 27 -305 27 -184 0 -214 -2 -290 -23 -104 -29
-222 -75 -262 -103 -16 -12 -31 -19 -34 -17 -10 11 -94 532 -87 538 4 4 22 10
40 13 31 6 33 4 56 -47 73 -158 227 -223 363 -153 85 43 132 112 158 229 5 24
10 26 51 26 l45 -1 16 -59z m-995 -293 c10 -27 19 -53 19 -56 0 -4 -15 -12
-32 -20 -18 -7 -98 -43 -177 -81 -79 -37 -145 -67 -146 -66 -2 2 -14 26 -28
55 -30 58 -31 56 52 98 l55 27 21 -26 c28 -35 35 -33 35 12 0 37 2 39 73 74
39 21 80 36 91 35 12 -1 25 -19 37 -52z m1129 -146 c115 -18 252 -66 323 -111
87 -55 142 -155 122 -218 -6 -19 -10 -17 -47 25 -29 33 -65 58 -132 89 -180
87 -410 115 -641 81 -195 -29 -324 -83 -400 -167 -24 -26 -46 -48 -49 -48 -12
0 -6 102 8 129 21 39 96 106 153 134 60 31 196 74 265 86 76 12 321 13 398 0z
m-897 -229 c5 -18 1 -20 -40 -18 l-45 1 33 18 c45 22 46 22 52 -1z m912 -11
c102 -14 165 -33 234 -74 109 -64 140 -111 143 -213 1 -68 -17 -142 -36 -142
-7 0 -21 9 -32 21 -18 20 -83 53 -91 46 -2 -2 14 -15 35 -29 58 -39 102 -135
102 -223 0 -84 -19 -126 -78 -171 -43 -32 -49 -34 -129 -34 -57 0 -82 -3 -78
-11 4 -6 13 -8 21 -5 23 9 71 -14 83 -40 25 -55 10 -129 -30 -149 -42 -22 -69
-19 -70 8 0 12 -4 31 -9 42 -7 15 -9 8 -9 -30 0 -27 0 -56 0 -63 -2 -23 -82
-52 -144 -52 -77 0 -97 11 -98 58 -2 34 -2 34 -6 7 -8 -56 -29 -67 -113 -63
-41 2 -88 10 -105 18 -26 13 -31 22 -35 65 -5 45 -7 47 -14 23 -9 -32 -24 -35
-66 -13 -39 20 -50 43 -50 108 0 48 3 55 25 65 14 7 35 12 45 12 11 0 20 5 20
10 0 6 -30 10 -70 10 -81 0 -118 19 -163 81 -69 96 -32 272 73 346 l35 25 -30
-7 c-16 -3 -49 -20 -73 -36 -23 -16 -47 -29 -52 -29 -16 0 -25 51 -25 145 0
69 4 97 17 117 33 50 107 100 200 135 155 58 344 72 573 42z m939 -18 c63 -29
66 -32 66 -66 0 -39 24 -50 35 -15 3 11 15 20 24 20 26 0 131 -49 131 -61 0
-5 -11 -32 -25 -58 l-24 -49 -178 75 c-98 41 -180 77 -182 79 -2 2 1 16 7 31
6 15 16 41 22 57 12 33 22 32 124 -13z m-1934 -11 c0 -4 -12 -12 -27 -19 -21
-10 -28 -9 -34 1 -8 11 -13 5 -11 -13 1 -3 -9 -11 -21 -16 -38 -18 -32 21 6
39 32 16 87 21 87 8z m80 -65 c0 -56 21 -110 49 -125 18 -9 21 -20 21 -85 l0
-75 -256 0 c-201 0 -254 3 -248 13 5 6 27 38 51 71 24 32 43 64 43 70 0 16
119 86 146 86 30 0 127 46 149 70 30 33 45 25 45 -25z m-220 28 c0 -5 -18 -16
-40 -26 -22 -10 -40 -24 -40 -31 0 -15 -58 -37 -65 -25 -3 4 12 17 34 28 22
12 43 26 46 32 12 18 65 36 65 22z m-4 -60 c-11 -11 -17 4 -9 23 7 18 8 18 11
1 2 -10 1 -21 -2 -24z m-158 -53 c-10 -6 -14 -18 -11 -30 3 -11 1 -20 -5 -20
-11 0 -24 39 -16 52 3 4 15 8 27 8 19 -1 20 -2 5 -10z m-889 -139 l30 -38
-135 -123 -136 -123 -41 41 -41 42 39 41 c68 70 93 84 121 69 29 -16 43 -6 26
20 -6 11 -9 25 -6 32 9 20 95 89 104 83 5 -3 22 -22 39 -44z m4081 -3 c41 -36
43 -39 30 -63 -17 -32 -7 -42 24 -25 28 15 53 1 121 -69 l39 -41 -41 -42 -41
-41 -135 123 -136 123 36 43 c39 48 38 48 103 -8z m-3882 -51 c23 -24 42 -48
42 -54 0 -8 -289 -262 -423 -372 l-30 -25 -34 40 c-42 49 -52 83 -29 96 35 19
215 168 316 261 58 53 107 96 110 96 3 1 24 -19 48 -42z m3954 -243 c46 -36
91 -72 101 -80 17 -14 16 -17 -15 -60 -17 -25 -38 -50 -45 -55 -18 -15 -58 19
-130 111 -85 108 -191 196 -296 246 -20 10 -37 23 -37 29 0 6 20 30 45 53 l45
42 124 -111 c69 -61 162 -140 208 -175z m-6008 121 c-29 -55 -51 -74 -38 -33
10 32 56 100 62 93 3 -3 -7 -30 -24 -60z m7818 27 c28 -42 43 -82 31 -82 -9 0
-63 94 -63 110 0 17 6 11 32 -28z m-1681 -149 c0 -5 2 -20 4 -35 3 -25 2 -26
-16 -15 -19 12 -25 37 -12 50 9 9 23 9 24 0z m-2921 -13 c0 -5 -4 -10 -10 -10
-5 0 -10 5 -10 10 0 6 5 10 10 10 6 0 10 -4 10 -10z m-3309 -117 c-9 -15 -10
-13 -11 13 0 17 3 34 8 38 11 12 14 -32 3 -51z m8009 14 c0 -24 -3 -28 -10
-17 -13 20 -13 63 0 55 6 -3 10 -21 10 -38z m-1760 -119 c9 -45 -1 -42 -25 7
-14 30 -14 39 -3 52 12 15 13 14 16 -3 2 -10 7 -36 12 -56z m-4490 -18 c-6
-11 -12 -20 -14 -20 -2 0 -2 9 1 20 3 11 9 20 15 20 5 0 4 -9 -2 -20z m4227
-202 c-3 -8 -6 -5 -6 6 -1 11 2 17 5 13 3 -3 4 -12 1 -19z"/>
<path d="M4253 6070 c-43 -26 -56 -53 -48 -100 13 -75 113 -106 174 -54 27 22
31 32 31 74 0 56 -21 84 -72 94 -44 9 -50 8 -85 -14z"/>
<path d="M4845 6081 c-57 -24 -74 -96 -37 -148 38 -54 137 -48 172 10 27 44
25 71 -7 107 -30 32 -91 47 -128 31z"/>
<path d="M4565 5893 c-34 -38 -41 -62 -20 -82 15 -15 17 -15 29 2 17 21 25 22
41 0 11 -15 15 -15 29 -4 20 17 20 40 0 69 -29 41 -50 45 -79 15z"/>
<path d="M1600 6488 c0 -17 7 -27 20 -31 18 -5 18 -4 3 22 -10 14 -18 28 -20
30 -2 2 -3 -7 -3 -21z"/>
<path d="M7699 6481 c-16 -27 -16 -28 2 -24 12 3 19 14 19 29 0 30 -1 30 -21
-5z"/>
<path d="M1800 6337 c0 -14 116 -87 208 -132 61 -30 32 -7 -62 48 -51 30 -105
62 -120 72 -14 10 -26 15 -26 12z"/>
<path d="M7402 6271 c-125 -76 -146 -91 -87 -64 81 38 205 116 205 129 0 6 3
8 -118 -65z"/>
<path d="M2930 6249 c0 -5 5 -7 10 -4 6 3 10 8 10 11 0 2 -4 4 -10 4 -5 0 -10
-5 -10 -11z"/>
<path d="M2962 6231 c-9 -5 -5 -11 13 -19 35 -16 45 -15 45 4 0 13 -3 14 -14
5 -11 -10 -16 -9 -23 3 -5 9 -13 12 -21 7z"/>
<path d="M7028 6073 c7 -3 16 -2 19 1 4 3 -2 6 -13 5 -11 0 -14 -3 -6 -6z"/>
<path d="M6250 5870 c0 -5 5 -10 11 -10 5 0 7 5 4 10 -3 6 -8 10 -11 10 -2 0
-4 -4 -4 -10z"/>
<path d="M6226 5835 c4 -8 8 -15 10 -15 2 0 4 7 4 15 0 8 -4 15 -10 15 -5 0
-7 -7 -4 -15z"/>
<path d="M2750 5710 c0 -5 5 -10 10 -10 6 0 10 5 10 10 0 6 -4 10 -10 10 -5 0
-10 -4 -10 -10z"/>
<path d="M2778 5480 c-4 -19 -9 -43 -13 -52 -6 -15 -2 -18 26 -18 19 0 40 4
48 9 19 12 6 41 -18 41 -12 0 -23 10 -28 27 l-10 28 -5 -35z"/>
<path d="M3000 5450 c0 -5 -7 -7 -15 -4 -8 4 -15 1 -15 -5 0 -15 23 -14 46 4
17 13 17 14 2 15 -10 0 -18 -4 -18 -10z"/>
<path d="M2860 5440 c0 -5 5 -10 11 -10 5 0 7 5 4 10 -3 6 -8 10 -11 10 -2 0
-4 -4 -4 -10z"/>
<path d="M5490 5430 c-151 -10 -371 -23 -488 -30 -117 -6 -219 -13 -226 -16
-12 -5 -15 -105 -18 -642 -2 -350 -1 -640 2 -644 3 -4 66 -10 142 -14 l136 -7
7 69 c4 38 10 94 14 124 l6 55 63 0 c233 -2 369 -7 381 -14 10 -7 17 -47 25
-138 l11 -128 60 -8 c33 -4 92 -6 130 -5 l70 3 0 88 c-4 1306 -4 1327 -22
1326 -10 -1 -142 -10 -293 -19z m-90 -381 c0 -36 18 -302 25 -376 l5 -53 -160
0 -160 0 0 230 0 230 145 0 145 0 0 -31z"/>
<path d="M5170 4970 l0 -40 59 0 c54 0 58 -2 57 -22 -1 -15 -9 -24 -26 -28
-14 -4 -24 -12 -23 -18 2 -6 -13 -28 -32 -49 -28 -31 -35 -46 -35 -80 l0 -43
93 0 92 0 -10 157 -10 158 -82 3 -83 3 0 -41z"/>
<path d="M5181 4841 c-15 -9 -7 -31 11 -31 6 0 8 3 5 7 -4 3 -2 12 4 20 13 15
1 17 -20 4z"/>
<path d="M2010 5400 c-184 -22 -400 -46 -479 -55 -80 -8 -146 -16 -147 -18 -6
-7 -7 -1284 -1 -1294 6 -10 64 -13 233 -13 196 0 225 2 231 16 3 9 -2 85 -12
170 -10 85 -16 155 -14 157 2 2 99 20 214 41 116 21 248 46 295 55 l85 16 3
483 2 482 -37 -1 c-21 0 -189 -18 -373 -39z m26 -457 c-8 -208 -12 -243 -29
-243 -7 0 -68 -7 -137 -15 -69 -8 -133 -15 -142 -15 -17 0 -18 17 -18 209 l0
208 138 17 c75 10 144 19 152 20 44 10 43 16 36 -181z"/>
<path d="M1846 5039 c-32 -5 -61 -10 -63 -12 -2 -3 -2 -57 -1 -121 l3 -117 72
63 c39 35 72 69 72 76 1 6 10 21 21 32 12 12 20 33 20 55 0 33 -2 35 -32 34
-18 -1 -60 -5 -92 -10z"/>
<path d="M1940 4883 c0 -16 5 -35 10 -43 8 -11 9 -8 4 11 -3 15 -1 30 5 33 16
10 13 26 -4 26 -10 0 -15 -10 -15 -27z"/>
<path d="M1920 4831 c0 -6 5 -13 10 -16 6 -3 10 1 10 9 0 9 -4 16 -10 16 -5 0
-10 -4 -10 -9z"/>
<path d="M1820 4781 c0 -28 15 -34 68 -26 37 6 43 9 29 17 -12 6 -22 6 -32 -2
-11 -9 -18 -7 -32 9 -22 26 -33 27 -33 2z"/>
<path d="M2890 5429 c0 -5 16 -9 35 -9 19 0 35 4 35 9 0 5 -16 9 -35 9 -19 0
-35 -4 -35 -9z"/>
<path d="M5884 5405 c-3 -6 -3 -98 -2 -205 l3 -195 170 -6 c94 -3 172 -7 174
-8 2 0 2 -216 0 -478 l-4 -478 65 -3 c36 -1 124 1 195 5 l130 8 -3 55 c-8 174
-32 789 -32 829 l0 48 166 7 c92 3 171 9 175 12 8 4 14 313 7 315 -2 0 -236
24 -522 53 -358 36 -519 49 -522 41z"/>
<path d="M3015 5361 l-510 -36 0 -158 0 -159 168 1 168 2 -6 -63 c-3 -35 -12
-184 -21 -333 -8 -148 -17 -271 -19 -273 -1 -2 -69 -6 -149 -9 l-147 -6 3
-131 3 -131 270 -11 c149 -7 384 -15 523 -19 l252 -8 0 150 0 150 -166 6 c-91
3 -167 7 -168 9 -5 7 15 617 22 658 l7 45 120 11 c66 6 135 15 153 18 l32 8 0
159 c0 121 -3 159 -12 158 -7 -1 -242 -18 -523 -38z"/>
<path d="M4140 5343 c-272 -19 -501 -36 -507 -38 -10 -3 -13 -141 -13 -641 l0
-637 176 6 c97 3 177 7 179 9 4 5 14 191 15 276 0 43 4 72 10 72 6 0 54 -66
107 -147 140 -217 99 -195 342 -187 113 4 209 9 213 13 3 3 -45 86 -108 184
-63 98 -114 185 -114 193 0 9 10 14 28 14 15 0 66 7 115 16 l87 16 0 444 c0
417 -1 444 -17 443 -10 -1 -241 -17 -513 -36z m153 -460 c3 -109 5 -198 4
-199 -1 -2 -80 -6 -175 -10 l-172 -7 0 79 c0 84 17 304 23 310 6 6 173 21 248
23 l66 1 6 -197z"/>
<path d="M4079 5003 l-46 -4 -7 -67 c-3 -37 -6 -95 -6 -129 l0 -63 105 0 105
0 0 68 c0 37 -3 97 -7 135 l-6 67 -46 -2 c-25 -1 -67 -3 -92 -5z"/>
<path d="M7015 5362 c-3 -3 -5 -304 -5 -670 l0 -665 178 7 c97 3 305 11 462
16 157 6 313 13 348 16 l62 6 0 139 0 140 -57 -6 c-156 -17 -549 -43 -554 -37
-8 9 -29 175 -23 182 5 4 322 38 374 40 50 1 52 7 40 131 -17 180 12 159 -215
159 l-195 0 0 25 c0 25 29 227 33 231 3 4 301 -16 447 -30 74 -7 138 -11 143
-9 4 2 7 67 7 144 0 103 -3 141 -12 144 -7 2 -213 11 -458 19 -245 9 -473 18
-507 20 -34 2 -65 1 -68 -2z"/>
<path d="M1090 5054 c-137 -30 -148 -34 -73 -28 34 3 97 16 140 29 98 30 70
30 -67 -1z"/>
<path d="M8120 5051 c0 -12 36 -20 112 -26 l63 -5 -65 15 c-36 8 -75 17 -87
20 -13 3 -23 1 -23 -4z"/>
<path d="M918 5013 c7 -3 16 -2 19 1 4 3 -2 6 -13 5 -11 0 -14 -3 -6 -6z"/>
<path d="M8308 5013 c7 -3 16 -2 19 1 4 3 -2 6 -13 5 -11 0 -14 -3 -6 -6z"/>
<path d="M694 4991 c15 -16 22 -18 33 -10 16 14 16 14 -22 23 -29 7 -29 7 -11
-13z"/>
<path d="M3430 4998 c-47 -5 -95 -11 -106 -14 -21 -4 -22 -10 -28 -211 -3
-115 -8 -245 -11 -290 l-5 -83 140 0 140 0 0 305 0 305 -22 -1 c-13 -1 -61 -6
-108 -11z"/>
<path d="M7516 4987 c-3 -12 -8 -39 -11 -59 l-6 -38 163 0 c110 0 171 -4 188
-13 34 -17 47 -72 56 -227 6 -116 5 -132 -11 -150 -21 -24 -80 -35 -262 -51
l-142 -12 6 -31 c3 -17 7 -32 8 -34 2 -2 344 24 468 36 83 9 129 -2 141 -33 3
-9 6 -83 6 -164 0 -166 -6 -184 -68 -200 -20 -5 -118 -12 -217 -16 -99 -3
-283 -10 -410 -15 -399 -16 -434 -15 -457 8 -14 13 -23 38 -26 72 -4 40 -9 54
-23 57 -11 3 -19 12 -19 20 0 11 4 11 20 3 17 -9 20 -8 20 10 0 13 -7 20 -20
20 -11 0 -20 7 -20 15 0 13 4 14 20 5 17 -9 20 -8 20 13 0 16 -9 28 -25 35
-17 8 -25 20 -25 37 0 20 5 25 25 25 l25 0 0 159 c0 118 -3 161 -12 164 -10 4
-10 6 0 6 20 2 14 17 -9 18 -11 1 -36 10 -56 20 -81 40 -82 178 -1 178 31 0
33 2 36 39 l3 38 -120 -3 c-65 -2 -123 -7 -127 -11 -4 -4 1 -201 10 -437 10
-236 15 -438 12 -449 -13 -40 -72 -50 -330 -52 -151 -2 -144 -2 -166 20 -17
17 -20 33 -20 110 0 101 0 101 -72 73 -53 -20 -115 -67 -123 -93 -4 -11 -11
-20 -17 -20 -7 0 -9 19 -5 56 4 42 14 67 34 93 31 39 122 91 160 91 l23 0 0
315 0 315 -92 1 c-51 1 -117 2 -145 3 l-53 2 0 -464 0 -464 -29 -27 -30 -28
47 -48 c59 -59 102 -89 222 -150 52 -27 109 -56 127 -66 17 -10 62 -22 100
-27 64 -9 69 -9 94 14 23 22 34 24 115 23 49 0 122 -4 163 -8 115 -11 114 -10
109 -258 l-3 -201 35 -6 c61 -10 72 -8 65 13 -3 11 -3 31 1 46 6 23 10 26 33
20 14 -3 45 -25 68 -49 37 -38 47 -43 93 -45 l51 -1 -7 205 c-7 189 -6 206 11
225 10 11 23 20 29 20 21 0 37 17 30 33 -3 10 -23 19 -52 23 -26 3 -54 13 -63
21 -20 17 -62 3 -101 -34 -32 -30 -39 -27 -40 16 -1 20 -7 33 -20 36 -10 4
-18 12 -18 20 0 15 74 12 140 -5 73 -19 155 -21 225 -6 81 18 86 15 111 -53
l17 -48 60 -6 c89 -8 100 -23 103 -144 2 -54 3 -111 4 -126 0 -22 4 -27 18
-23 9 3 57 6 106 8 l90 2 17 -69 c24 -93 24 -92 -18 -51 -56 54 -71 49 -28 -9
36 -47 12 -49 -36 -3 -44 42 -54 45 -63 22 -8 -21 4 -41 14 -24 4 7 13 9 19 6
17 -11 13 -26 -5 -19 -10 4 -17 -1 -20 -14 -5 -18 -7 -18 -36 9 -31 29 -52 31
-29 4 13 -16 5 -60 -9 -51 -11 7 -20 -31 -20 -88 0 -44 2 -48 22 -45 33 5 32
-19 -2 -30 l-30 -11 0 -105 c0 -93 -3 -109 -20 -126 -26 -26 -18 -25 -187 -15
l-123 7 0 -41 c0 -40 1 -41 35 -41 20 0 64 -12 98 -27 55 -24 75 -27 172 -27
106 -1 113 0 185 35 71 34 142 83 110 76 -8 -2 -12 -2 -7 1 4 2 17 21 27 43
25 48 35 51 16 4 -32 -76 21 -20 67 70 13 28 34 86 46 130 27 100 40 118 102
156 87 54 89 84 15 258 -98 233 -126 308 -126 344 0 73 67 97 210 78 89 -12
96 -15 191 -77 80 -53 205 -104 253 -104 90 0 155 63 241 231 93 182 133 311
175 564 27 158 38 365 20 365 -7 0 -10 8 -7 20 7 28 -13 78 -35 83 -10 3 -18
14 -18 27 0 11 4 19 9 16 5 -4 7 3 4 15 -3 11 -12 23 -20 26 -17 7 -106 -89
-129 -139 -19 -43 -28 -46 -58 -20 -18 15 -18 13 3 -21 l23 -38 -30 -57 c-36
-67 -82 -210 -112 -342 -30 -139 -44 -153 -60 -63 -4 26 -8 40 -9 31 0 -9 -10
-23 -21 -31 -18 -12 -28 -12 -77 1 -45 13 -60 23 -76 49 -23 40 -34 41 -49 6
l-12 -28 -4 31 c-4 43 33 288 57 370 27 96 35 165 17 158 -13 -5 -56 -91 -56
-111 0 -4 -9 -22 -20 -40 -17 -29 -22 -31 -49 -23 -20 5 -37 4 -55 -5 -14 -7
-33 -12 -43 -10 -10 2 -46 9 -79 15 -47 9 -65 18 -74 35 -7 13 -9 28 -6 34 4
6 3 11 -1 11 -5 0 -27 18 -49 39 -32 30 -47 38 -66 34 -14 -3 -29 0 -32 6 -5
8 12 11 53 11 l61 0 0 40 c0 26 -5 40 -13 40 -7 0 -93 7 -192 15 -337 27 -304
27 -309 2z m728 -297 c14 -5 26 -16 26 -25 0 -17 -2 -18 -53 -6 -33 8 -46 5
-105 -25 -36 -19 -73 -34 -81 -34 -8 0 -30 -14 -48 -32 -18 -18 -33 -29 -33
-25 0 13 63 77 76 77 19 0 110 48 125 66 13 16 56 18 93 4z m-1334 -60 c0 -5
-7 -7 -15 -4 -8 4 -15 8 -15 10 0 2 7 4 15 4 8 0 15 -4 15 -10z m2024 -472
c-4 -24 -13 -54 -21 -68 -13 -24 -14 -23 -8 17 5 45 21 93 30 93 3 0 2 -19 -1
-42z m-94 -237 c0 -12 -31 -43 -37 -37 -6 6 20 46 29 46 5 0 8 -4 8 -9z
m-1490 -96 c0 -8 -7 -15 -16 -15 -14 0 -14 3 -4 15 7 8 14 15 16 15 2 0 4 -7
4 -15z m504 -54 c9 -24 15 -46 12 -49 -6 -5 -46 83 -46 101 0 19 16 -5 34 -52z
m-604 27 c-25 -9 -36 -5 -26 10 3 6 16 8 28 4 l22 -5 -24 -9z m656 -162 l22
-64 -21 -6 c-25 -6 -36 1 -14 10 14 5 14 11 -3 55 -20 49 -26 89 -13 76 3 -4
16 -36 29 -71z m51 -150 c7 -22 12 -42 11 -45 -2 -4 -24 16 -51 42 l-47 48 36
-3 c33 -3 39 -7 51 -42z m-121 -137 c12 -24 14 -44 9 -78 l-8 -46 -23 75 c-13
41 -24 76 -24 78 0 1 7 2 15 2 8 0 22 -14 31 -31z m27 -174 c11 -31 19 -39 38
-40 39 0 37 -20 -2 -23 -33 -3 -37 0 -42 26 -3 16 -9 43 -13 58 -9 40 3 26 19
-21z m-27 -39 l7 -44 -62 -13 c-34 -6 -64 -16 -67 -20 -3 -5 2 -23 10 -41 22
-44 11 -48 -14 -5 -19 32 -24 35 -50 27 -17 -5 -30 -7 -30 -5 0 2 -3 11 -7 20
-5 14 -2 16 16 10 15 -4 29 -1 41 10 13 12 30 16 51 13 20 -3 33 0 36 9 3 7
13 13 23 13 26 0 31 12 20 50 -10 36 -2 62 11 37 5 -9 12 -36 15 -61z m109
-145 c-2 -2 -12 0 -22 4 -12 5 -14 9 -5 12 6 3 12 17 13 31 1 24 2 23 9 -8 5
-19 7 -37 5 -39z m-5 -31 c0 -5 -9 -24 -20 -42 l-20 -33 6 33 c5 27 4 32 -12
32 -16 0 -17 2 -4 10 19 13 50 13 50 0z"/>
<path d="M8521 5001 c-20 -5 -22 -8 -9 -19 12 -10 18 -8 33 8 19 21 16 22 -24
11z"/>
<path d="M245 4971 c-9 -18 -12 -30 -6 -27 7 4 11 -1 11 -14 0 -13 -8 -24 -19
-27 -12 -3 -22 -16 -25 -32 -27 -149 -28 -157 -11 -302 36 -320 109 -569 222
-756 75 -126 132 -173 207 -173 53 0 181 53 262 107 88 59 118 70 229 78 76 5
96 3 125 -12 57 -29 54 -92 -10 -238 -66 -150 -130 -319 -130 -344 0 -29 11
-41 114 -124 28 -22 37 -40 51 -97 23 -93 78 -206 123 -253 49 -51 142 -102
222 -123 73 -19 215 -13 238 9 9 10 12 76 10 288 l-3 274 -32 -80 c-18 -44
-36 -95 -39 -112 -4 -18 -9 -33 -11 -33 -16 0 -143 43 -143 48 0 14 20 37 20
25 0 -7 11 -13 25 -13 14 0 34 -6 46 -12 17 -11 22 -10 37 10 27 35 67 183 52
192 -9 6 -9 9 1 12 8 3 10 11 5 24 -7 17 -9 17 -19 3 -13 -18 -37 -14 -37 6 0
7 7 18 16 26 13 10 17 10 25 -2 8 -11 9 -10 7 6 -5 33 -34 29 -48 -7 -7 -18
-19 -40 -27 -49 -7 -9 -15 -26 -18 -38 -2 -12 -13 -33 -24 -48 -20 -25 -21
-25 -21 -4 0 12 -4 20 -9 16 -15 -9 -24 34 -10 51 24 29 2 23 -30 -8 l-33 -32
4 43 c2 25 -2 46 -8 48 -5 2 -29 -13 -52 -33 -51 -44 -65 -38 -28 11 33 43 19
46 -28 5 -28 -25 -36 -40 -41 -83 -9 -65 -10 -61 16 -67 12 -3 24 -11 27 -18
5 -16 -39 -16 -63 1 -17 14 -17 17 8 108 14 52 31 112 36 134 l10 40 98 -4
c54 -1 106 -7 115 -12 31 -17 45 -9 68 41 17 35 28 49 39 46 49 -15 71 -17 71
-8 0 12 -24 22 -50 22 -10 0 -21 4 -24 9 -6 8 73 231 100 283 17 33 18 33 97
12 62 -16 129 -14 207 6 19 5 73 12 119 16 67 5 82 3 79 -7 -3 -8 -23 -17 -46
-22 -42 -8 -54 -23 -28 -33 8 -3 162 11 342 30 305 34 328 35 352 20 13 -9 27
-25 30 -36 3 -13 10 -17 21 -13 9 4 84 10 166 15 83 4 318 18 522 31 l373 22
25 -23 c20 -19 25 -33 25 -73 l0 -50 48 6 c26 3 270 20 542 38 457 30 497 34
518 52 l22 21 283 -28 c155 -15 302 -30 327 -33 l45 -5 -56 53 c-73 69 -99
113 -99 166 l0 42 -52 5 c-29 3 -85 8 -125 11 -85 6 -118 17 -133 44 -5 11
-14 67 -18 123 l-7 103 -70 6 c-38 4 -116 7 -172 8 l-102 1 -6 -57 c-20 -193
-17 -189 -151 -185 -51 2 -126 7 -165 11 -62 6 -75 5 -89 -9 -15 -15 -51 -18
-249 -25 -205 -6 -234 -5 -256 9 -14 9 -54 59 -89 112 l-64 95 -4 -96 c-6
-141 -2 -139 -231 -146 -100 -3 -192 -2 -205 3 -13 4 -31 4 -41 -2 -18 -9
-1018 24 -1069 35 -12 3 -31 14 -42 25 -18 18 -20 34 -20 164 0 79 3 152 6
161 13 33 59 45 177 45 l113 0 13 226 c7 125 15 249 18 276 6 47 5 48 -18 44
-13 -3 -77 -5 -141 -5 l-118 -1 0 -42 0 -41 120 6 120 6 0 -29 c0 -16 -4 -32
-10 -35 -5 -3 -10 -17 -10 -30 0 -14 -9 -29 -20 -35 -11 -6 -20 -19 -20 -30 0
-13 -9 -22 -25 -26 -14 -3 -25 -12 -25 -19 0 -7 -16 -27 -35 -44 -37 -32 -51
-39 -39 -20 4 8 -1 9 -16 4 -14 -5 -25 -2 -30 6 -5 6 -8 -20 -9 -58 -1 -84
-14 -118 -52 -133 -15 -7 -144 -33 -286 -59 l-258 -46 -3 -34 c-2 -18 1 -38 6
-43 7 -7 52 -3 129 11 65 11 141 23 168 26 28 3 57 8 65 10 38 11 119 15 124
6 17 -27 -9 -38 -142 -60 -153 -25 -205 -44 -210 -78 -3 -19 1 -23 23 -23 47
0 227 40 277 62 27 11 51 18 55 14 8 -8 -69 -41 -143 -61 -105 -29 -178 -46
-214 -51 -33 -5 -59 -19 -49 -28 8 -8 303 59 356 81 18 7 37 13 43 13 21 0 -1
-20 -38 -36 -54 -22 -234 -74 -242 -69 -13 8 -43 -34 -37 -50 5 -11 21 -15 56
-15 61 0 76 -16 24 -26 -49 -9 -73 -21 -70 -37 1 -8 -9 -11 -31 -9 -27 2 -33
-1 -30 -15 2 -12 14 -19 38 -21 l34 -4 -24 -20 c-17 -13 -21 -21 -12 -25 18
-7 15 -30 -5 -37 -10 -4 -46 -4 -81 0 -70 7 -68 4 -107 116 l-16 47 -241 3
-240 3 -24 28 -24 28 0 380 c0 232 -4 378 -9 374 -5 -3 -33 -6 -62 -7 -36 0
-57 -6 -70 -19 -11 -11 -19 -16 -19 -13 0 4 -6 1 -14 -5 -8 -7 -36 -14 -63
-18 -54 -6 -70 -13 -31 -13 15 0 50 -16 80 -35 29 -20 70 -40 90 -45 22 -6 45
-22 57 -39 31 -43 25 -49 -11 -15 -18 17 -52 36 -74 42 -23 7 -47 19 -54 27
-7 8 -20 15 -29 15 -9 0 -21 4 -27 10 -6 6 -22 6 -44 0 -19 -6 -41 -10 -47
-10 -21 0 -15 30 7 38 19 7 18 9 -9 25 -23 14 -35 15 -57 7 -24 -10 -30 -8
-46 12 -10 13 -24 44 -32 70 -18 58 -34 88 -46 88 -17 0 -9 -83 17 -164 13
-43 29 -115 34 -160 5 -45 13 -108 18 -141 10 -69 1 -100 -17 -61 -13 29 -42
26 -42 -4 0 -23 -16 -35 -65 -47 -22 -6 -48 -14 -57 -18 -11 -4 -25 1 -42 18
l-25 25 -3 -41 c-2 -22 -8 -42 -14 -44 -11 -4 -22 30 -49 152 -20 89 -81 270
-106 313 -23 40 -24 62 -4 88 20 27 19 40 -3 21 -27 -25 -39 -21 -52 18 -6 19
-38 63 -70 97 l-57 62 -18 -33z m84 -821 c6 -28 11 -59 11 -68 -1 -32 -21 15
-29 68 -10 65 4 65 18 0z m111 -262 c0 -12 -7 -10 -24 8 -9 8 -16 23 -16 32 0
13 5 11 20 -8 11 -14 20 -28 20 -32z m952 -151 c-5 -12 -20 -51 -32 -86 -21
-62 -22 -65 -4 -78 13 -10 14 -13 3 -13 -8 0 -20 4 -28 9 -12 8 -8 27 24 112
21 56 41 97 43 90 2 -7 0 -23 -6 -34z m-70 -256 c-26 -26 -49 -47 -51 -45 -2
2 1 16 7 31 5 15 13 36 16 46 4 12 16 17 40 17 l35 0 -47 -49z m128 -109 c0
-4 -11 -39 -23 -77 l-24 -70 -6 44 c-6 48 16 111 40 111 7 0 13 -4 13 -8z
m130 -131 c0 -5 -7 -12 -16 -15 -14 -5 -15 -4 -4 9 14 17 20 19 20 6z m-190
-81 c-12 -50 -13 -51 -46 -48 -39 3 -42 23 -4 23 21 1 27 8 39 43 18 58 26 45
11 -18z m178 -91 c16 -12 28 -16 30 -10 6 17 22 13 22 -5 0 -13 -7 -15 -35
-11 -32 5 -37 3 -56 -31 -19 -34 -19 -26 -3 29 5 15 1 22 -15 26 -11 3 -21 9
-21 14 0 17 52 9 78 -12z m-248 -39 c0 -11 0 -23 1 -27 0 -4 -4 -9 -10 -11 -6
-2 -11 10 -11 27 0 17 5 31 10 31 6 0 10 -9 10 -20z m35 -70 c19 -8 19 -9 -2
-9 -26 -1 -27 -8 -13 -45 5 -14 7 -26 5 -26 -5 0 -45 75 -45 85 0 8 32 5 55
-5z m58 -192 c18 -25 22 -36 12 -32 -14 6 -45 53 -45 70 0 4 1 5 3 3 2 -2 15
-21 30 -41z"/>
<path d="M6920 4920 c0 -5 5 -10 10 -10 6 0 10 5 10 10 0 6 -4 10 -10 10 -5 0
-10 -4 -10 -10z"/>
<path d="M2500 4830 c-24 -15 -7 -19 25 -5 23 10 25 14 10 14 -11 0 -27 -3
-35 -9z"/>
<path d="M2561 4634 c0 -11 3 -14 6 -6 3 7 2 16 -1 19 -3 4 -6 -2 -5 -13z"/>
<path d="M4613 4416 c-34 -6 -64 -14 -68 -17 -3 -3 28 -57 70 -120 l75 -114 0
133 c0 72 -3 131 -7 131 -5 -1 -36 -7 -70 -13z"/>
<path d="M1908 4148 c9 -78 8 -126 -2 -159 -9 -33 27 -84 43 -59 13 20 22 9
14 -18 -3 -12 -11 -22 -19 -22 -19 0 -54 40 -54 63 0 10 -5 17 -12 14 -38 -13
40 -116 88 -117 18 0 23 7 26 43 2 23 0 60 -4 82 -5 22 -12 56 -16 75 -5 23
-2 57 9 98 l16 62 -48 0 -49 0 8 -62z m22 -179 c0 -6 -4 -7 -10 -4 -5 3 -10
11 -10 16 0 6 5 7 10 4 6 -3 10 -11 10 -16z"/>
<path d="M1930 3825 c7 -9 15 -13 17 -11 7 7 -7 26 -19 26 -6 0 -6 -6 2 -15z"/>
<path d="M1911 3711 c-17 -16 -31 -35 -31 -43 1 -8 5 -7 15 6 16 21 56 27 67
11 4 -6 13 -2 22 10 19 25 20 36 2 29 -8 -3 -17 -1 -21 5 -10 17 -20 13 -54
-18z"/>
<path d="M2156 3731 c-3 -4 -24 -11 -47 -14 -23 -3 -47 -11 -53 -17 -8 -9 7
-11 69 -5 44 3 91 9 104 12 23 6 23 7 6 19 -21 16 -71 19 -79 5z"/>
<path d="M7280 3731 c0 -5 -9 -11 -19 -13 -17 -3 -18 -5 -7 -21 11 -14 19 -16
40 -7 22 8 30 6 46 -10 11 -11 20 -15 20 -9 0 6 -13 24 -29 40 -29 29 -51 37
-51 20z"/>
<path d="M2545 3675 c-209 -25 -429 -49 -490 -56 -60 -6 -113 -13 -117 -16 -5
-2 -8 -296 -8 -654 l0 -649 241 0 241 0 -6 38 c-20 136 -37 294 -33 298 3 3
99 23 214 44 333 62 376 71 385 76 4 3 8 221 8 485 l0 479 -27 -1 c-16 0 -199
-20 -408 -44z m51 -302 c-3 -16 -8 -110 -12 -210 -3 -101 -9 -183 -13 -183 -3
-1 -72 -9 -153 -18 l-148 -18 0 211 0 211 118 16 c64 8 139 16 165 17 48 1 49
1 43 -26z"/>
<path d="M2408 3317 l-78 -9 0 -38 c0 -33 3 -37 20 -33 24 6 25 -5 3 -36 -10
-16 -17 -51 -20 -103 l-4 -80 68 7 c118 11 111 5 117 87 3 40 7 106 9 146 3
82 16 76 -115 59z"/>
<path d="M3660 3699 c-157 -10 -354 -22 -438 -27 -84 -6 -155 -12 -157 -14 -2
-2 -5 -291 -6 -643 l-2 -640 44 -6 c24 -4 87 -8 139 -10 l95 -4 -4 124 -3 124
242 -6 c133 -3 245 -8 248 -11 3 -4 10 -63 16 -133 l11 -127 33 -7 c18 -4 77
-8 130 -10 l97 -4 0 93 c0 50 -1 369 -3 707 l-2 615 -77 -1 c-43 -1 -206 -10
-363 -20z m94 -346 c3 -32 10 -141 16 -243 6 -102 12 -202 15 -222 l5 -38
-195 0 -195 0 0 280 0 280 174 0 174 0 6 -57z"/>
<path d="M3470 3220 l0 -119 98 -3 97 -3 2 -60 c4 -95 12 -125 31 -125 16 0
16 11 5 173 -6 94 -12 191 -12 215 l-1 42 -110 0 -110 0 0 -120z"/>
<path d="M5314 3677 c-2 -7 -3 -98 -2 -202 l3 -190 173 -9 172 -9 0 -481 0
-481 172 6 c95 4 184 7 197 8 24 1 24 1 17 89 -10 138 -37 834 -33 839 4 3
183 15 340 23 6 0 11 320 4 320 -2 0 -228 22 -502 50 -275 27 -508 50 -518 50
-10 0 -20 -6 -23 -13z"/>
<path d="M7308 3663 c7 -3 16 -2 19 1 4 3 -2 6 -13 5 -11 0 -14 -3 -6 -6z"/>
<path d="M4640 3615 c-250 -18 -456 -33 -457 -34 -2 -1 -3 -288 -3 -640 l0
-639 158 5 c222 6 202 -4 202 106 0 117 11 257 20 257 4 0 36 -45 71 -100 35
-55 85 -132 112 -170 l48 -70 102 1 c56 1 155 4 219 8 l118 6 -121 188 c-67
103 -119 190 -116 193 3 3 45 11 93 19 49 7 101 16 117 20 l27 7 0 439 0 439
-67 -1 c-38 -1 -273 -16 -523 -34z m210 -454 c0 -172 -2 -200 -16 -205 -9 -3
-88 -6 -176 -6 l-161 0 6 68 c4 37 9 119 13 184 4 64 9 121 13 126 6 10 164
27 274 31 l47 1 0 -199z"/>
<path d="M4653 3283 l-62 -4 -5 -52 c-3 -29 -7 -83 -10 -121 l-4 -69 89 6 c74
6 91 4 95 -8 4 -8 13 -15 21 -15 10 0 13 6 9 16 -3 9 -6 69 -6 135 l0 119 -32
-2 c-18 -1 -61 -3 -95 -5z"/>
<path d="M6440 3300 l0 -329 68 -20 c37 -11 108 -30 157 -42 50 -12 94 -25 99
-30 4 -4 3 -115 -5 -251 -7 -133 -13 -259 -13 -278 l-1 -35 190 -7 c140 -5
192 -3 197 5 4 7 8 41 8 77 0 36 5 150 12 254 l12 188 85 -6 c47 -3 121 -9
164 -12 l77 -7 0 386 c0 212 -3 388 -7 390 -5 3 -73 7 -152 8 l-145 4 2 -100
c1 -55 5 -158 8 -229 l7 -128 -69 6 c-38 3 -148 8 -244 12 l-175 6 4 228 3
227 -32 7 c-18 3 -81 6 -141 6 l-109 0 0 -330z"/>
<path d="M1847 3568 c-3 -12 -2 -29 3 -37 7 -12 9 -6 10 22 0 42 -5 48 -13 15z"/>
<path d="M1800 3373 c0 -5 11 -16 24 -25 21 -15 25 -15 30 -3 3 8 -3 19 -14
25 -22 12 -40 13 -40 3z"/>
<path d="M5295 3210 c-2 -3 -1 -58 2 -122 l6 -116 128 -4 c70 -2 130 -6 133
-9 3 -2 6 -107 8 -232 l3 -227 -180 0 c-154 1 -177 3 -162 14 15 12 17 27 15
103 l-3 89 -77 -14 -76 -14 83 -127 c46 -71 92 -144 101 -164 19 -41 13 -81
-15 -97 -11 -5 -95 -12 -188 -15 -92 -3 -189 -8 -215 -10 -79 -9 -107 10 -179
119 -41 61 -66 91 -71 83 -4 -7 -8 -46 -8 -88 0 -123 2 -121 -226 -132 -124
-5 -196 -5 -211 2 -15 7 -24 7 -29 -1 -7 -12 -213 -3 -280 12 -59 13 -71 36
-79 142 -10 142 11 128 -196 128 l-179 0 0 -99 c0 -96 -1 -100 -27 -121 -25
-19 -34 -20 -152 -14 -69 3 -143 10 -163 15 -63 16 -68 32 -68 216 l0 163 -22
-5 c-13 -3 -75 -14 -138 -25 -184 -31 -382 -69 -387 -74 -2 -2 3 -65 12 -140
13 -109 14 -142 4 -169 -10 -30 -9 -39 19 -95 122 -246 324 -407 588 -468 75
-18 153 -19 1579 -19 1442 0 1503 1 1575 19 230 59 404 181 533 378 l52 79
148 -7 147 -7 0 42 0 41 -47 1 c-27 0 -112 4 -190 7 -174 9 -178 11 -178 110
0 37 4 159 9 272 l8 205 -133 34 c-154 38 -184 51 -193 83 -3 13 -6 74 -6 136
l0 112 -62 0 c-35 0 -100 -3 -145 -7 l-83 -6 0 -42 c0 -23 3 -77 7 -120 l6
-78 115 8 c63 3 121 9 128 12 11 4 14 -17 14 -110 0 -64 4 -127 9 -141 9 -21
5 -29 -33 -64 -24 -22 -59 -47 -79 -57 -21 -9 -37 -21 -37 -25 0 -5 -22 -16
-50 -25 l-50 -17 0 -117 c0 -163 14 -154 -249 -162 -126 -4 -214 -3 -227 3
-42 20 -44 39 -44 508 l0 449 -146 3 c-80 2 -147 1 -149 -2z"/>
<path d="M1892 2209 l3 -44 238 -3 237 -2 0 40 0 40 -217 0 c-120 0 -228 3
-241 6 -22 6 -23 4 -20 -37z"/>
</g>
</svg>
